<mxfile host="Electron" agent="Mozilla/5.0 (Macintosh; Intel Mac OS X 10_15_7) AppleWebKit/537.36 (KHTML, like Gecko) draw.io/24.7.5 Chrome/126.0.6478.183 Electron/31.3.0 Safari/537.36" version="24.7.5">
  <diagram name="페이지-1" id="wnXlHPyN8h0sGNkNlVV1">
    <mxGraphModel dx="1114" dy="1990" grid="1" gridSize="10" guides="1" tooltips="1" connect="1" arrows="1" fold="1" page="1" pageScale="1" pageWidth="827" pageHeight="1169" math="0" shadow="0">
      <root>
        <mxCell id="0" />
        <mxCell id="1" parent="0" />
        <mxCell id="8MH_QoHVWcbeerEpW_9r-43" value="" style="rounded=0;whiteSpace=wrap;html=1;fillColor=#d5e8d4;strokeColor=none;opacity=50;" vertex="1" parent="1">
          <mxGeometry x="190" y="-1080" width="514" height="460" as="geometry" />
        </mxCell>
        <mxCell id="8MH_QoHVWcbeerEpW_9r-42" value="" style="rounded=0;whiteSpace=wrap;html=1;fillColor=#fff2cc;strokeColor=none;opacity=50;" vertex="1" parent="1">
          <mxGeometry x="60" y="-1080" width="120" height="460" as="geometry" />
        </mxCell>
        <mxCell id="8MH_QoHVWcbeerEpW_9r-1" value="" style="endArrow=none;html=1;rounded=0;strokeWidth=1;" edge="1" parent="1">
          <mxGeometry width="50" height="50" relative="1" as="geometry">
            <mxPoint x="711" y="-620" as="sourcePoint" />
            <mxPoint x="710.5" y="-1080" as="targetPoint" />
          </mxGeometry>
        </mxCell>
        <mxCell id="8MH_QoHVWcbeerEpW_9r-2" value="" style="endArrow=none;html=1;rounded=0;strokeWidth=1;" edge="1" parent="1">
          <mxGeometry width="50" height="50" relative="1" as="geometry">
            <mxPoint x="546" y="-620" as="sourcePoint" />
            <mxPoint x="545.5" y="-1080" as="targetPoint" />
          </mxGeometry>
        </mxCell>
        <mxCell id="8MH_QoHVWcbeerEpW_9r-3" value="" style="endArrow=none;html=1;rounded=0;strokeWidth=1;" edge="1" parent="1">
          <mxGeometry width="50" height="50" relative="1" as="geometry">
            <mxPoint x="396" y="-620" as="sourcePoint" />
            <mxPoint x="396" y="-1080" as="targetPoint" />
          </mxGeometry>
        </mxCell>
        <mxCell id="8MH_QoHVWcbeerEpW_9r-4" value="" style="endArrow=none;html=1;rounded=0;strokeWidth=1;" edge="1" parent="1">
          <mxGeometry width="50" height="50" relative="1" as="geometry">
            <mxPoint x="306" y="-620" as="sourcePoint" />
            <mxPoint x="305.5" y="-1080" as="targetPoint" />
          </mxGeometry>
        </mxCell>
        <mxCell id="8MH_QoHVWcbeerEpW_9r-5" value="" style="endArrow=none;html=1;rounded=0;strokeWidth=1;" edge="1" parent="1">
          <mxGeometry width="50" height="50" relative="1" as="geometry">
            <mxPoint x="186" y="-620" as="sourcePoint" />
            <mxPoint x="185.5" y="-1080" as="targetPoint" />
          </mxGeometry>
        </mxCell>
        <mxCell id="8MH_QoHVWcbeerEpW_9r-6" value="" style="endArrow=none;html=1;rounded=0;strokeWidth=1;" edge="1" parent="1">
          <mxGeometry width="50" height="50" relative="1" as="geometry">
            <mxPoint x="55" y="-620" as="sourcePoint" />
            <mxPoint x="55" y="-1080" as="targetPoint" />
          </mxGeometry>
        </mxCell>
        <mxCell id="8MH_QoHVWcbeerEpW_9r-7" style="edgeStyle=orthogonalEdgeStyle;rounded=0;orthogonalLoop=1;jettySize=auto;html=1;endArrow=none;endFill=0;" edge="1" parent="1" source="8MH_QoHVWcbeerEpW_9r-9" target="8MH_QoHVWcbeerEpW_9r-11">
          <mxGeometry relative="1" as="geometry" />
        </mxCell>
        <mxCell id="8MH_QoHVWcbeerEpW_9r-8" value="max.block.ms" style="edgeLabel;html=1;align=center;verticalAlign=middle;resizable=0;points=[];fontSize=13;labelBackgroundColor=#DAE8FC;fontStyle=1" vertex="1" connectable="0" parent="8MH_QoHVWcbeerEpW_9r-7">
          <mxGeometry x="-0.74" y="3" relative="1" as="geometry">
            <mxPoint x="37" y="2" as="offset" />
          </mxGeometry>
        </mxCell>
        <mxCell id="8MH_QoHVWcbeerEpW_9r-9" value="" style="ellipse;whiteSpace=wrap;html=1;aspect=fixed;" vertex="1" parent="1">
          <mxGeometry x="40" y="-1030" width="30" height="30" as="geometry" />
        </mxCell>
        <mxCell id="8MH_QoHVWcbeerEpW_9r-10" style="edgeStyle=orthogonalEdgeStyle;rounded=0;orthogonalLoop=1;jettySize=auto;html=1;entryX=0.5;entryY=0;entryDx=0;entryDy=0;endArrow=block;endFill=1;strokeWidth=2;" edge="1" parent="1" source="8MH_QoHVWcbeerEpW_9r-11" target="8MH_QoHVWcbeerEpW_9r-14">
          <mxGeometry relative="1" as="geometry" />
        </mxCell>
        <mxCell id="8MH_QoHVWcbeerEpW_9r-11" value="" style="ellipse;whiteSpace=wrap;html=1;aspect=fixed;fillColor=#e1d5e7;strokeColor=#9673a6;" vertex="1" parent="1">
          <mxGeometry x="170" y="-1030" width="30" height="30" as="geometry" />
        </mxCell>
        <mxCell id="8MH_QoHVWcbeerEpW_9r-12" style="edgeStyle=orthogonalEdgeStyle;rounded=0;orthogonalLoop=1;jettySize=auto;html=1;entryX=0;entryY=0.5;entryDx=0;entryDy=0;endArrow=none;endFill=0;" edge="1" parent="1" source="8MH_QoHVWcbeerEpW_9r-14" target="8MH_QoHVWcbeerEpW_9r-16">
          <mxGeometry relative="1" as="geometry" />
        </mxCell>
        <mxCell id="8MH_QoHVWcbeerEpW_9r-13" value="linger.ms" style="edgeLabel;html=1;align=center;verticalAlign=middle;resizable=0;points=[];fontSize=13;labelBackgroundColor=#DAE8FC;fontStyle=1" vertex="1" connectable="0" parent="8MH_QoHVWcbeerEpW_9r-12">
          <mxGeometry x="-0.5778" y="-1" relative="1" as="geometry">
            <mxPoint x="26" y="-2" as="offset" />
          </mxGeometry>
        </mxCell>
        <mxCell id="8MH_QoHVWcbeerEpW_9r-14" value="" style="ellipse;whiteSpace=wrap;html=1;aspect=fixed;" vertex="1" parent="1">
          <mxGeometry x="170" y="-970" width="30" height="30" as="geometry" />
        </mxCell>
        <mxCell id="8MH_QoHVWcbeerEpW_9r-15" style="edgeStyle=orthogonalEdgeStyle;rounded=0;orthogonalLoop=1;jettySize=auto;html=1;entryX=0.5;entryY=0;entryDx=0;entryDy=0;endArrow=block;endFill=1;strokeWidth=2;" edge="1" parent="1" source="8MH_QoHVWcbeerEpW_9r-16" target="8MH_QoHVWcbeerEpW_9r-18">
          <mxGeometry relative="1" as="geometry" />
        </mxCell>
        <mxCell id="8MH_QoHVWcbeerEpW_9r-16" value="" style="ellipse;whiteSpace=wrap;html=1;aspect=fixed;" vertex="1" parent="1">
          <mxGeometry x="290" y="-970" width="30" height="30" as="geometry" />
        </mxCell>
        <mxCell id="8MH_QoHVWcbeerEpW_9r-17" style="edgeStyle=orthogonalEdgeStyle;rounded=0;orthogonalLoop=1;jettySize=auto;html=1;entryX=0;entryY=0.5;entryDx=0;entryDy=0;endArrow=none;endFill=0;" edge="1" parent="1" source="8MH_QoHVWcbeerEpW_9r-18" target="8MH_QoHVWcbeerEpW_9r-21">
          <mxGeometry relative="1" as="geometry" />
        </mxCell>
        <mxCell id="8MH_QoHVWcbeerEpW_9r-18" value="" style="ellipse;whiteSpace=wrap;html=1;aspect=fixed;" vertex="1" parent="1">
          <mxGeometry x="290" y="-910" width="30" height="30" as="geometry" />
        </mxCell>
        <mxCell id="8MH_QoHVWcbeerEpW_9r-19" style="edgeStyle=orthogonalEdgeStyle;rounded=0;orthogonalLoop=1;jettySize=auto;html=1;entryX=0.5;entryY=0;entryDx=0;entryDy=0;endArrow=block;endFill=1;strokeWidth=2;" edge="1" parent="1" source="8MH_QoHVWcbeerEpW_9r-21" target="8MH_QoHVWcbeerEpW_9r-24">
          <mxGeometry relative="1" as="geometry" />
        </mxCell>
        <mxCell id="8MH_QoHVWcbeerEpW_9r-20" style="edgeStyle=orthogonalEdgeStyle;rounded=0;orthogonalLoop=1;jettySize=auto;html=1;entryX=0.5;entryY=0;entryDx=0;entryDy=0;endArrow=block;endFill=1;curved=1;dashed=1;dashPattern=1 1;strokeWidth=2;" edge="1" parent="1" source="8MH_QoHVWcbeerEpW_9r-21" target="8MH_QoHVWcbeerEpW_9r-27">
          <mxGeometry relative="1" as="geometry" />
        </mxCell>
        <mxCell id="8MH_QoHVWcbeerEpW_9r-21" value="" style="ellipse;whiteSpace=wrap;html=1;aspect=fixed;fillColor=#e1d5e7;strokeColor=#9673a6;" vertex="1" parent="1">
          <mxGeometry x="380" y="-910" width="30" height="30" as="geometry" />
        </mxCell>
        <mxCell id="8MH_QoHVWcbeerEpW_9r-22" style="edgeStyle=orthogonalEdgeStyle;rounded=0;orthogonalLoop=1;jettySize=auto;html=1;entryX=0;entryY=0.5;entryDx=0;entryDy=0;endArrow=none;endFill=0;" edge="1" parent="1" source="8MH_QoHVWcbeerEpW_9r-24" target="8MH_QoHVWcbeerEpW_9r-27">
          <mxGeometry relative="1" as="geometry" />
        </mxCell>
        <mxCell id="8MH_QoHVWcbeerEpW_9r-23" value="retry.backoff.ms" style="edgeLabel;html=1;align=center;verticalAlign=middle;resizable=0;points=[];fontSize=13;labelBackgroundColor=#DAE8FC;fontStyle=1" vertex="1" connectable="0" parent="8MH_QoHVWcbeerEpW_9r-22">
          <mxGeometry x="-0.6" y="1" relative="1" as="geometry">
            <mxPoint x="34" as="offset" />
          </mxGeometry>
        </mxCell>
        <mxCell id="8MH_QoHVWcbeerEpW_9r-24" value="" style="ellipse;whiteSpace=wrap;html=1;aspect=fixed;" vertex="1" parent="1">
          <mxGeometry x="380" y="-850" width="30" height="30" as="geometry" />
        </mxCell>
        <mxCell id="8MH_QoHVWcbeerEpW_9r-25" style="edgeStyle=orthogonalEdgeStyle;rounded=0;orthogonalLoop=1;jettySize=auto;html=1;entryX=0;entryY=0.5;entryDx=0;entryDy=0;endArrow=none;endFill=0;" edge="1" parent="1" source="8MH_QoHVWcbeerEpW_9r-27" target="8MH_QoHVWcbeerEpW_9r-29">
          <mxGeometry relative="1" as="geometry" />
        </mxCell>
        <mxCell id="8MH_QoHVWcbeerEpW_9r-26" value="request.timeout.ms" style="edgeLabel;html=1;align=center;verticalAlign=middle;resizable=0;points=[];fontSize=13;labelBackgroundColor=#DAE8FC;fontStyle=1" vertex="1" connectable="0" parent="8MH_QoHVWcbeerEpW_9r-25">
          <mxGeometry x="-0.6833" y="4" relative="1" as="geometry">
            <mxPoint x="45" y="3" as="offset" />
          </mxGeometry>
        </mxCell>
        <mxCell id="8MH_QoHVWcbeerEpW_9r-27" value="" style="ellipse;whiteSpace=wrap;html=1;aspect=fixed;" vertex="1" parent="1">
          <mxGeometry x="530" y="-850" width="30" height="30" as="geometry" />
        </mxCell>
        <mxCell id="8MH_QoHVWcbeerEpW_9r-28" style="edgeStyle=orthogonalEdgeStyle;rounded=0;orthogonalLoop=1;jettySize=auto;html=1;entryX=0.5;entryY=1;entryDx=0;entryDy=0;endArrow=block;endFill=1;curved=1;dashed=1;dashPattern=1 1;strokeWidth=2;" edge="1" parent="1" source="8MH_QoHVWcbeerEpW_9r-29" target="8MH_QoHVWcbeerEpW_9r-24">
          <mxGeometry relative="1" as="geometry">
            <Array as="points">
              <mxPoint x="710" y="-780" />
              <mxPoint x="395" y="-780" />
            </Array>
          </mxGeometry>
        </mxCell>
        <mxCell id="8MH_QoHVWcbeerEpW_9r-29" value="" style="ellipse;whiteSpace=wrap;html=1;aspect=fixed;fillColor=#e1d5e7;strokeColor=#9673a6;" vertex="1" parent="1">
          <mxGeometry x="695" y="-850" width="30" height="30" as="geometry" />
        </mxCell>
        <mxCell id="8MH_QoHVWcbeerEpW_9r-30" value="send()" style="text;html=1;strokeColor=#b85450;fillColor=#f8cecc;align=center;verticalAlign=middle;whiteSpace=wrap;rounded=0;fontSize=14;" vertex="1" parent="1">
          <mxGeometry x="90" y="-690" width="60" height="30" as="geometry" />
        </mxCell>
        <mxCell id="8MH_QoHVWcbeerEpW_9r-31" value="Batching" style="text;html=1;strokeColor=#b85450;fillColor=#f8cecc;align=center;verticalAlign=middle;whiteSpace=wrap;rounded=0;fontSize=14;" vertex="1" parent="1">
          <mxGeometry x="215" y="-690" width="60" height="30" as="geometry" />
        </mxCell>
        <mxCell id="8MH_QoHVWcbeerEpW_9r-32" value="Await&lt;br&gt;send" style="text;html=1;strokeColor=#b85450;fillColor=#f8cecc;align=center;verticalAlign=middle;whiteSpace=wrap;rounded=0;fontSize=14;" vertex="1" parent="1">
          <mxGeometry x="320" y="-690" width="60" height="30" as="geometry" />
        </mxCell>
        <mxCell id="8MH_QoHVWcbeerEpW_9r-33" value="Retries" style="text;html=1;strokeColor=#b85450;fillColor=#f8cecc;align=center;verticalAlign=middle;whiteSpace=wrap;rounded=0;fontSize=14;" vertex="1" parent="1">
          <mxGeometry x="440" y="-690" width="60" height="30" as="geometry" />
        </mxCell>
        <mxCell id="8MH_QoHVWcbeerEpW_9r-34" value="Inflight" style="text;html=1;strokeColor=#b85450;fillColor=#f8cecc;align=center;verticalAlign=middle;whiteSpace=wrap;rounded=0;fontSize=14;" vertex="1" parent="1">
          <mxGeometry x="600" y="-690" width="60" height="30" as="geometry" />
        </mxCell>
        <mxCell id="8MH_QoHVWcbeerEpW_9r-35" style="edgeStyle=orthogonalEdgeStyle;rounded=0;orthogonalLoop=1;jettySize=auto;html=1;endArrow=block;endFill=1;" edge="1" parent="1" source="8MH_QoHVWcbeerEpW_9r-37">
          <mxGeometry relative="1" as="geometry">
            <mxPoint x="60" y="-1105" as="targetPoint" />
          </mxGeometry>
        </mxCell>
        <mxCell id="8MH_QoHVWcbeerEpW_9r-36" style="edgeStyle=orthogonalEdgeStyle;rounded=0;orthogonalLoop=1;jettySize=auto;html=1;endArrow=block;endFill=1;" edge="1" parent="1" source="8MH_QoHVWcbeerEpW_9r-37">
          <mxGeometry relative="1" as="geometry">
            <mxPoint x="180" y="-1105" as="targetPoint" />
          </mxGeometry>
        </mxCell>
        <mxCell id="8MH_QoHVWcbeerEpW_9r-37" value="1구간" style="text;html=1;strokeColor=#d6b656;fillColor=#fff2cc;align=center;verticalAlign=middle;whiteSpace=wrap;rounded=0;" vertex="1" parent="1">
          <mxGeometry x="90" y="-1120" width="60" height="30" as="geometry" />
        </mxCell>
        <mxCell id="8MH_QoHVWcbeerEpW_9r-38" style="edgeStyle=orthogonalEdgeStyle;rounded=0;orthogonalLoop=1;jettySize=auto;html=1;endArrow=block;endFill=1;" edge="1" parent="1" source="8MH_QoHVWcbeerEpW_9r-40">
          <mxGeometry relative="1" as="geometry">
            <mxPoint x="190" y="-1105" as="targetPoint" />
          </mxGeometry>
        </mxCell>
        <mxCell id="8MH_QoHVWcbeerEpW_9r-39" style="edgeStyle=orthogonalEdgeStyle;rounded=0;orthogonalLoop=1;jettySize=auto;html=1;endArrow=block;endFill=1;" edge="1" parent="1" source="8MH_QoHVWcbeerEpW_9r-40">
          <mxGeometry relative="1" as="geometry">
            <mxPoint x="710" y="-1105" as="targetPoint" />
          </mxGeometry>
        </mxCell>
        <mxCell id="8MH_QoHVWcbeerEpW_9r-40" value="2구간" style="text;html=1;strokeColor=#82b366;fillColor=#d5e8d4;align=center;verticalAlign=middle;whiteSpace=wrap;rounded=0;" vertex="1" parent="1">
          <mxGeometry x="400" y="-1120" width="60" height="30" as="geometry" />
        </mxCell>
        <mxCell id="8MH_QoHVWcbeerEpW_9r-41" value="새 타임아웃&lt;br style=&quot;font-size: 14px;&quot;&gt;delivery.timeout.ms &amp;gt;= linger.ms + retry.backoff.ms + request.timeout.ms" style="rounded=1;whiteSpace=wrap;html=1;fontSize=14;fillColor=#dae8fc;strokeColor=#6c8ebf;" vertex="1" parent="1">
          <mxGeometry x="170" y="-770" width="550" height="50" as="geometry" />
        </mxCell>
      </root>
    </mxGraphModel>
  </diagram>
</mxfile>
